<svg width="70" height="70" viewBox="0 0 70 70" fill="none" xmlns="http://www.w3.org/2000/svg">
<path fill-rule="evenodd" clip-rule="evenodd" d="M35 43C43.2843 43 50 36.2843 50 28C50 19.7157 43.2843 13 35 13C26.7157 13 20 19.7157 20 28C20 36.2843 26.7157 43 35 43ZM35 38C40.5228 38 45 33.5228 45 28C45 22.4772 40.5228 18 35 18C29.4772 18 25 22.4772 25 28C25 33.5228 29.4772 38 35 38Z" fill="white"/>
<rect x="16" y="49.3334" width="38" height="6.66667" fill="white"/>
<ellipse cx="35" cy="49.3333" rx="19" ry="3.33333" fill="white"/>
</svg>
